<svg width="86" height="56" viewBox="0 0 86 56" fill="none" xmlns="http://www.w3.org/2000/svg">
<path d="M0 8H86V56H17L0 39.2V8Z" fill="#A83131"/>
<path d="M21.8281 56H19L0 37V34.1719L21.8281 56Z" fill="#242424"/>
<path d="M12.632 32C11.928 32 11.2773 31.8293 10.68 31.488C10.104 31.1467 9.64533 30.688 9.304 30.112C8.96267 29.5147 8.792 28.864 8.792 28.16V12.8C8.792 12.096 8.96267 11.456 9.304 10.88C9.64533 10.2827 10.104 9.81333 10.68 9.472C11.2773 9.13067 11.928 8.96 12.632 8.96H31.768V11.552H12.632C12.2907 11.552 11.992 11.68 11.736 11.936C11.5013 12.1707 11.384 12.4587 11.384 12.8V28.16C11.384 28.5013 11.5013 28.8 11.736 29.056C11.992 29.2907 12.2907 29.408 12.632 29.408H31.768V32H12.632ZM35.1685 32V12.8C35.1685 12.096 35.3392 11.456 35.6805 10.88C36.0218 10.2827 36.4805 9.81333 37.0565 9.472C37.6538 9.13067 38.3045 8.96 39.0085 8.96H54.3685C55.0725 8.96 55.7125 9.13067 56.2885 9.472C56.8858 9.81333 57.3552 10.2827 57.6965 10.88C58.0378 11.456 58.2085 12.096 58.2085 12.8V32H55.6165V23.584H37.7605V32H35.1685ZM37.7605 20.992H55.6165V12.8C55.6165 12.4587 55.4885 12.1707 55.2325 11.936C54.9978 11.68 54.7098 11.552 54.3685 11.552H39.0085C38.6672 11.552 38.3685 11.68 38.1125 11.936C37.8778 12.1707 37.7605 12.4587 37.7605 12.8V20.992ZM61.8545 32V8.992H81.0545C81.7585 8.992 82.3985 9.17333 82.9745 9.536C83.5718 9.87733 84.0412 10.336 84.3825 10.912C84.7238 11.488 84.8945 12.128 84.8945 12.832V19.584C84.8945 20.288 84.7238 20.928 84.3825 21.504C84.0412 22.08 83.5718 22.5493 82.9745 22.912C82.3985 23.2533 81.7585 23.424 81.0545 23.424H64.4465V32H61.8545ZM65.6945 20.8H81.0545C81.3958 20.8 81.6838 20.6827 81.9185 20.448C82.1745 20.2133 82.3025 19.9253 82.3025 19.584V12.832C82.3025 12.4907 82.1745 12.2027 81.9185 11.968C81.6838 11.712 81.3958 11.584 81.0545 11.584H65.6945C65.3532 11.584 65.0545 11.712 64.7985 11.968C64.5638 12.2027 64.4465 12.4907 64.4465 12.832V19.584C64.4465 19.9253 64.5638 20.2133 64.7985 20.448C65.0545 20.6827 65.3532 20.8 65.6945 20.8Z" fill="#242424"/>
</svg>
