<svg width="86" height="56" viewBox="0 0 86 56" fill="none" xmlns="http://www.w3.org/2000/svg">
<path d="M0 8H86V56H17L0 39.2V8Z" fill="#00F552"/>
<path d="M36.8281 56H34L0 22V19.1719L36.8281 56Z" fill="#242424"/>
<path d="M32 56H29.1719L0 26.8281V24L32 56Z" fill="#242424"/>
<path d="M26.8281 56H24L0 32V29.1719L26.8281 56Z" fill="#242424"/>
<path d="M22 56H19.1719L0 36.8281V34L22 56Z" fill="#242424"/>
<path d="M36.696 32C35.9707 32 35.3093 31.8293 34.712 31.488C34.136 31.1253 33.6773 30.656 33.336 30.08C32.9947 29.4827 32.824 28.832 32.824 28.128V12.864C32.824 12.1387 32.9947 11.488 33.336 10.912C33.6773 10.3147 34.136 9.84533 34.712 9.504C35.3093 9.14133 35.9707 8.96 36.696 8.96H52.216C52.92 8.96 53.56 9.14133 54.136 9.504C54.7333 9.84533 55.2027 10.3147 55.544 10.912C55.9067 11.488 56.088 12.1387 56.088 12.864V28.128C56.088 28.832 55.9067 29.4827 55.544 30.08C55.2027 30.656 54.7333 31.1253 54.136 31.488C53.56 31.8293 52.92 32 52.216 32H36.696ZM35.768 29.376H52.216C52.5573 29.376 52.8453 29.2587 53.08 29.024C53.336 28.768 53.464 28.4693 53.464 28.128V14.784L35.768 29.376ZM35.448 26.208L53.112 11.616H36.696C36.3547 11.616 36.056 11.744 35.8 12C35.5653 12.2347 35.448 12.5227 35.448 12.864V26.208ZM63.2875 32C62.5622 32 61.9008 31.8293 61.3035 31.488C60.7275 31.1253 60.2582 30.656 59.8955 30.08C59.5542 29.4827 59.3835 28.832 59.3835 28.128V27.616H62.0395V28.128C62.0395 28.4693 62.1568 28.768 62.3915 29.024C62.6475 29.2587 62.9462 29.376 63.2875 29.376H78.8075C79.1488 29.376 79.4368 29.2587 79.6715 29.024C79.9275 28.768 80.0555 28.4693 80.0555 28.128V22.784C80.0555 22.4427 79.9275 22.1547 79.6715 21.92C79.4368 21.664 79.1488 21.536 78.8075 21.536H63.7995V18.912H77.7835C78.1248 18.912 78.4128 18.7947 78.6475 18.56C78.9035 18.304 79.0315 18.0053 79.0315 17.664V12.832C79.0315 12.4907 78.9035 12.2027 78.6475 11.968C78.4128 11.712 78.1248 11.584 77.7835 11.584H63.2875C62.9462 11.584 62.6475 11.712 62.3915 11.968C62.1568 12.2027 62.0395 12.4907 62.0395 12.832V13.664H59.3835V12.832C59.3835 12.1067 59.5542 11.456 59.8955 10.88C60.2582 10.2827 60.7275 9.81333 61.3035 9.472C61.9008 9.10933 62.5622 8.928 63.2875 8.928H77.7835C78.5088 8.928 79.1595 9.10933 79.7355 9.472C80.3328 9.81333 80.8022 10.2827 81.1435 10.88C81.4848 11.456 81.6555 12.1067 81.6555 12.832V17.664C81.6555 17.9627 81.6128 18.2613 81.5275 18.56C81.4635 18.8373 81.3782 19.0933 81.2715 19.328C81.8048 19.84 82.1675 20.4053 82.3595 21.024C82.5728 21.6427 82.6795 22.2293 82.6795 22.784V28.128C82.6795 28.832 82.4982 29.4827 82.1355 30.08C81.7942 30.656 81.3248 31.1253 80.7275 31.488C80.1515 31.8293 79.5115 32 78.8075 32H63.2875Z" fill="#242424"/>
</svg>
