<svg width="86" height="56" viewBox="0 0 86 56" fill="none" xmlns="http://www.w3.org/2000/svg">
<path d="M0 8H86V56H17L0 39.2V8Z" fill="#00F5E9"/>
<path d="M41.8281 56H39L0 17V14.1719L41.8281 56Z" fill="#242424"/>
<path d="M36.8281 56H34L0 22V19.1719L36.8281 56Z" fill="#242424"/>
<path d="M32 56H29.1719L0 26.8281V24L32 56Z" fill="#242424"/>
<path d="M26.8281 56H24L0 32V29.1719L26.8281 56Z" fill="#242424"/>
<path d="M22 56H19.1719L0 36.8281V34L22 56Z" fill="#242424"/>
<path d="M37.696 32C36.9707 32 36.3093 31.8293 35.712 31.488C35.136 31.1253 34.6773 30.656 34.336 30.08C33.9947 29.4827 33.824 28.832 33.824 28.128V12.864C33.824 12.1387 33.9947 11.488 34.336 10.912C34.6773 10.3147 35.136 9.84533 35.712 9.504C36.3093 9.14133 36.9707 8.96 37.696 8.96H53.216C53.92 8.96 54.56 9.14133 55.136 9.504C55.7333 9.84533 56.2027 10.3147 56.544 10.912C56.9067 11.488 57.088 12.1387 57.088 12.864V28.128C57.088 28.832 56.9067 29.4827 56.544 30.08C56.2027 30.656 55.7333 31.1253 55.136 31.488C54.56 31.8293 53.92 32 53.216 32H37.696ZM36.768 29.376H53.216C53.5573 29.376 53.8453 29.2587 54.08 29.024C54.336 28.768 54.464 28.4693 54.464 28.128V14.784L36.768 29.376ZM36.448 26.208L54.112 11.616H37.696C37.3547 11.616 37.056 11.744 36.8 12C36.5653 12.2347 36.448 12.5227 36.448 12.864V26.208ZM74.9435 32V26.048H58.8795V23.104L74.6235 8.928H77.5675V23.424H81.1515V26.048H77.5675V32H74.9435ZM62.2395 23.424H74.9435V12.48L62.2395 23.424Z" fill="#242424"/>
</svg>
