<svg width="178" height="178" viewBox="0 0 178 178" fill="none" xmlns="http://www.w3.org/2000/svg">
<path d="M7.63965 178H0V177.413L166.738 0H174.93L7.63965 178ZM178 34.5117L43.1465 178H34.9551L178 25.7969V34.5117ZM178 72.5801L78.9229 178H70.7314L178 63.8643V72.5801ZM178 110.359L114.43 178H106.238L178 101.645V110.359ZM178 147.97L149.777 178H141.586L178 139.255V147.97ZM178 178H177.093L178 177.034V178ZM0 148.349V139.633L131.231 0H139.423L0 148.349ZM0 110.568V101.854L95.7246 0H103.916L0 110.568ZM0 72.7881V64.0732L60.2178 0H68.4092L0 72.7881ZM0 35.0078V26.293L24.7109 0H32.9023L0 35.0078Z" fill="white"/>
</svg>
