<svg width="86" height="56" viewBox="0 0 86 56" fill="none" xmlns="http://www.w3.org/2000/svg">
<path d="M0 8H86V56H17L0 39.2V8Z" fill="#EBA100"/>
<path d="M26.8281 56H24L0 32V29.1719L26.8281 56Z" fill="#242424"/>
<path d="M21.8281 55.8281H19L0 36.8281V34L21.8281 55.8281Z" fill="#242424"/>
<path d="M36.696 32C35.9707 32 35.3093 31.8293 34.712 31.488C34.136 31.1253 33.6773 30.656 33.336 30.08C32.9947 29.4827 32.824 28.832 32.824 28.128V12.864C32.824 12.1387 32.9947 11.488 33.336 10.912C33.6773 10.3147 34.136 9.84533 34.712 9.504C35.3093 9.14133 35.9707 8.96 36.696 8.96H52.216C52.92 8.96 53.56 9.14133 54.136 9.504C54.7333 9.84533 55.2027 10.3147 55.544 10.912C55.9067 11.488 56.088 12.1387 56.088 12.864V28.128C56.088 28.832 55.9067 29.4827 55.544 30.08C55.2027 30.656 54.7333 31.1253 54.136 31.488C53.56 31.8293 52.92 32 52.216 32H36.696ZM35.768 29.376H52.216C52.5573 29.376 52.8453 29.2587 53.08 29.024C53.336 28.768 53.464 28.4693 53.464 28.128V14.784L35.768 29.376ZM35.448 26.208L53.112 11.616H36.696C36.3547 11.616 36.056 11.744 35.8 12C35.5653 12.2347 35.448 12.5227 35.448 12.864V26.208ZM64.6955 32V11.904L61.1435 16.16H57.7195L63.7675 8.96H67.3515V32H64.6955Z" fill="#242424"/>
</svg>
