<svg width="86" height="58" viewBox="0 0 86 58" fill="none" xmlns="http://www.w3.org/2000/svg">
<path d="M0 10H86V58H17L0 41.2V10Z" fill="#EBA100"/>
<path d="M26.8281 58H24L0 34V31.1719L26.8281 58Z" fill="#242424"/>
<path d="M21.8281 57.8281H19L0 38.8281V36L21.8281 57.8281Z" fill="#242424"/>
<path d="M32.408 36C31.592 36 30.848 35.808 30.176 35.424C29.528 35.016 29.012 34.488 28.628 33.84C28.244 33.168 28.052 32.436 28.052 31.644V14.472C28.052 13.656 28.244 12.924 28.628 12.276C29.012 11.604 29.528 11.076 30.176 10.692C30.848 10.284 31.592 10.08 32.408 10.08H49.868C50.66 10.08 51.38 10.284 52.028 10.692C52.7 11.076 53.228 11.604 53.612 12.276C54.02 12.924 54.224 13.656 54.224 14.472V31.644C54.224 32.436 54.02 33.168 53.612 33.84C53.228 34.488 52.7 35.016 52.028 35.424C51.38 35.808 50.66 36 49.868 36H32.408ZM31.364 33.048H49.868C50.252 33.048 50.576 32.916 50.84 32.652C51.128 32.364 51.272 32.028 51.272 31.644V16.632L31.364 33.048ZM31.004 29.484L50.876 13.068H32.408C32.024 13.068 31.688 13.212 31.4 13.5C31.136 13.764 31.004 14.088 31.004 14.472V29.484ZM58.0754 36V26.28C58.0754 25.464 58.2674 24.732 58.6514 24.084C59.0354 23.412 59.5514 22.884 60.1994 22.5C60.8714 22.116 61.6154 21.924 62.4314 21.924H79.8914C80.2754 21.924 80.5994 21.792 80.8634 21.528C81.1514 21.24 81.2954 20.904 81.2954 20.52V14.436C81.2954 14.052 81.1514 13.728 80.8634 13.464C80.5994 13.176 80.2754 13.032 79.8914 13.032H62.4314C62.0474 13.032 61.7114 13.176 61.4234 13.464C61.1594 13.728 61.0274 14.052 61.0274 14.436V15.444H58.0754V14.436C58.0754 13.62 58.2674 12.888 58.6514 12.24C59.0354 11.568 59.5514 11.04 60.1994 10.656C60.8714 10.248 61.6154 10.044 62.4314 10.044H79.8914C80.6834 10.044 81.4034 10.248 82.0514 10.656C82.7234 11.04 83.2514 11.568 83.6354 12.24C84.0434 12.888 84.2474 13.62 84.2474 14.436V20.52C84.2474 21.312 84.0434 22.044 83.6354 22.716C83.2514 23.364 82.7234 23.892 82.0514 24.3C81.4034 24.684 80.6834 24.876 79.8914 24.876H62.4314C62.0474 24.876 61.7114 25.02 61.4234 25.308C61.1594 25.572 61.0274 25.896 61.0274 26.28V31.644C61.0274 32.028 61.1594 32.364 61.4234 32.652C61.7114 32.916 62.0474 33.048 62.4314 33.048H84.2474V36H58.0754Z" fill="#242424"/>
</svg>
