<svg width="86" height="58" viewBox="0 0 86 58" fill="none" xmlns="http://www.w3.org/2000/svg">
<path d="M0 10H86V58H17L0 41.2V10Z" fill="#EDF500"/>
<path d="M32 58H29.1719L0 28.8281V26L32 58Z" fill="#242424"/>
<path d="M26.8281 58H24L0 34V31.1719L26.8281 58Z" fill="#242424"/>
<path d="M21.8281 57.8281H19L0 38.8281V36L21.8281 57.8281Z" fill="#242424"/>
<path d="M32.408 36C31.592 36 30.848 35.808 30.176 35.424C29.528 35.016 29.012 34.488 28.628 33.84C28.244 33.168 28.052 32.436 28.052 31.644V14.472C28.052 13.656 28.244 12.924 28.628 12.276C29.012 11.604 29.528 11.076 30.176 10.692C30.848 10.284 31.592 10.08 32.408 10.08H49.868C50.66 10.08 51.38 10.284 52.028 10.692C52.7 11.076 53.228 11.604 53.612 12.276C54.02 12.924 54.224 13.656 54.224 14.472V31.644C54.224 32.436 54.02 33.168 53.612 33.84C53.228 34.488 52.7 35.016 52.028 35.424C51.38 35.808 50.66 36 49.868 36H32.408ZM31.364 33.048H49.868C50.252 33.048 50.576 32.916 50.84 32.652C51.128 32.364 51.272 32.028 51.272 31.644V16.632L31.364 33.048ZM31.004 29.484L50.876 13.068H32.408C32.024 13.068 31.688 13.212 31.4 13.5C31.136 13.764 31.004 14.088 31.004 14.472V29.484ZM62.3234 36C61.5074 36 60.7634 35.808 60.0914 35.424C59.4434 35.016 58.9154 34.488 58.5074 33.84C58.1234 33.168 57.9314 32.436 57.9314 31.644V31.068H60.9194V31.644C60.9194 32.028 61.0514 32.364 61.3154 32.652C61.6034 32.916 61.9394 33.048 62.3234 33.048H79.7834C80.1674 33.048 80.4914 32.916 80.7554 32.652C81.0434 32.364 81.1874 32.028 81.1874 31.644V25.632C81.1874 25.248 81.0434 24.924 80.7554 24.66C80.4914 24.372 80.1674 24.228 79.7834 24.228H62.8994V21.276H78.6314C79.0154 21.276 79.3394 21.144 79.6034 20.88C79.8914 20.592 80.0354 20.256 80.0354 19.872V14.436C80.0354 14.052 79.8914 13.728 79.6034 13.464C79.3394 13.176 79.0154 13.032 78.6314 13.032H62.3234C61.9394 13.032 61.6034 13.176 61.3154 13.464C61.0514 13.728 60.9194 14.052 60.9194 14.436V15.372H57.9314V14.436C57.9314 13.62 58.1234 12.888 58.5074 12.24C58.9154 11.568 59.4434 11.04 60.0914 10.656C60.7634 10.248 61.5074 10.044 62.3234 10.044H78.6314C79.4474 10.044 80.1794 10.248 80.8274 10.656C81.4994 11.04 82.0274 11.568 82.4114 12.24C82.7954 12.888 82.9874 13.62 82.9874 14.436V19.872C82.9874 20.208 82.9394 20.544 82.8434 20.88C82.7714 21.192 82.6754 21.48 82.5554 21.744C83.1554 22.32 83.5634 22.956 83.7794 23.652C84.0194 24.348 84.1394 25.008 84.1394 25.632V31.644C84.1394 32.436 83.9354 33.168 83.5274 33.84C83.1434 34.488 82.6154 35.016 81.9434 35.424C81.2954 35.808 80.5754 36 79.7834 36H62.3234Z" fill="#242424"/>
</svg>
