<svg width="86" height="58" viewBox="0 0 86 58" fill="none" xmlns="http://www.w3.org/2000/svg">
<path d="M0 10H86V58H17L0 41.2V10Z" fill="#00F5E9"/>
<path d="M41.8281 58H39L0 19V16.1719L41.8281 58Z" fill="#242424"/>
<path d="M36.8281 58H34L0 24V21.1719L36.8281 58Z" fill="#242424"/>
<path d="M32 58H29.1719L0 28.8281V26L32 58Z" fill="#242424"/>
<path d="M26.8281 58H24L0 34V31.1719L26.8281 58Z" fill="#242424"/>
<path d="M22 58H19.1719L0 38.8281V36L22 58Z" fill="#242424"/>
<path d="M32.408 36C31.592 36 30.848 35.808 30.176 35.424C29.528 35.016 29.012 34.488 28.628 33.84C28.244 33.168 28.052 32.436 28.052 31.644V14.472C28.052 13.656 28.244 12.924 28.628 12.276C29.012 11.604 29.528 11.076 30.176 10.692C30.848 10.284 31.592 10.08 32.408 10.08H49.868C50.66 10.08 51.38 10.284 52.028 10.692C52.7 11.076 53.228 11.604 53.612 12.276C54.02 12.924 54.224 13.656 54.224 14.472V31.644C54.224 32.436 54.02 33.168 53.612 33.84C53.228 34.488 52.7 35.016 52.028 35.424C51.38 35.808 50.66 36 49.868 36H32.408ZM31.364 33.048H49.868C50.252 33.048 50.576 32.916 50.84 32.652C51.128 32.364 51.272 32.028 51.272 31.644V16.632L31.364 33.048ZM31.004 29.484L50.876 13.068H32.408C32.024 13.068 31.688 13.212 31.4 13.5C31.136 13.764 31.004 14.088 31.004 14.472V29.484ZM62.4314 36C61.6154 36 60.8714 35.808 60.1994 35.424C59.5514 35.016 59.0354 34.488 58.6514 33.84C58.2674 33.168 58.0754 32.436 58.0754 31.644V30.6H61.0274V31.644C61.0274 32.028 61.1594 32.364 61.4234 32.652C61.7114 32.916 62.0474 33.048 62.4314 33.048H79.8914C80.2754 33.048 80.5994 32.916 80.8634 32.652C81.1514 32.364 81.2954 32.028 81.2954 31.644V25.524C81.2954 25.14 81.1514 24.816 80.8634 24.552C80.5994 24.264 80.2754 24.12 79.8914 24.12H58.0754V10.044H84.2474V13.032H62.4314C62.0474 13.032 61.7114 13.176 61.4234 13.464C61.1594 13.728 61.0274 14.052 61.0274 14.436V19.728C61.0274 20.112 61.1594 20.448 61.4234 20.736C61.7114 21.024 62.0474 21.168 62.4314 21.168H79.8914C80.6834 21.168 81.4034 21.36 82.0514 21.744C82.7234 22.128 83.2514 22.656 83.6354 23.328C84.0434 23.976 84.2474 24.708 84.2474 25.524V31.644C84.2474 32.436 84.0434 33.168 83.6354 33.84C83.2514 34.488 82.7234 35.016 82.0514 35.424C81.4034 35.808 80.6834 36 79.8914 36H62.4314Z" fill="#242424"/>
</svg>
