<svg width="86" height="58" viewBox="0 0 86 58" fill="none" xmlns="http://www.w3.org/2000/svg">
<path d="M0 10H86V58H17L0 41.2V10Z" fill="#A83131"/>
<path d="M21.8281 58H19L0 39V36.1719L21.8281 58Z" fill="#242424"/>
<path d="M32.408 36C31.592 36 30.848 35.808 30.176 35.424C29.528 35.016 29.012 34.488 28.628 33.84C28.244 33.168 28.052 32.436 28.052 31.644V14.472C28.052 13.656 28.244 12.924 28.628 12.276C29.012 11.604 29.528 11.076 30.176 10.692C30.848 10.284 31.592 10.08 32.408 10.08H49.868C50.66 10.08 51.38 10.284 52.028 10.692C52.7 11.076 53.228 11.604 53.612 12.276C54.02 12.924 54.224 13.656 54.224 14.472V31.644C54.224 32.436 54.02 33.168 53.612 33.84C53.228 34.488 52.7 35.016 52.028 35.424C51.38 35.808 50.66 36 49.868 36H32.408ZM31.364 33.048H49.868C50.252 33.048 50.576 32.916 50.84 32.652C51.128 32.364 51.272 32.028 51.272 31.644V16.632L31.364 33.048ZM31.004 29.484L50.876 13.068H32.408C32.024 13.068 31.688 13.212 31.4 13.5C31.136 13.764 31.004 14.088 31.004 14.472V29.484ZM63.9074 36V13.392L59.9114 18.18H56.0594L62.8634 10.08H66.8954V36H63.9074Z" fill="#242424"/>
</svg>
