<svg width="86" height="56" viewBox="0 0 86 56" fill="none" xmlns="http://www.w3.org/2000/svg">
<path d="M0 8H86V56H17L0 39.2V8Z" fill="#EDF500"/>
<path d="M32 56H29.1719L0 26.8281V24L32 56Z" fill="#242424"/>
<path d="M26.8281 56H24L0 32V29.1719L26.8281 56Z" fill="#242424"/>
<path d="M21.8281 55.8281H19L0 36.8281V34L21.8281 55.8281Z" fill="#242424"/>
<path d="M36.696 32C35.9707 32 35.3093 31.8293 34.712 31.488C34.136 31.1253 33.6773 30.656 33.336 30.08C32.9947 29.4827 32.824 28.832 32.824 28.128V12.864C32.824 12.1387 32.9947 11.488 33.336 10.912C33.6773 10.3147 34.136 9.84533 34.712 9.504C35.3093 9.14133 35.9707 8.96 36.696 8.96H52.216C52.92 8.96 53.56 9.14133 54.136 9.504C54.7333 9.84533 55.2027 10.3147 55.544 10.912C55.9067 11.488 56.088 12.1387 56.088 12.864V28.128C56.088 28.832 55.9067 29.4827 55.544 30.08C55.2027 30.656 54.7333 31.1253 54.136 31.488C53.56 31.8293 52.92 32 52.216 32H36.696ZM35.768 29.376H52.216C52.5573 29.376 52.8453 29.2587 53.08 29.024C53.336 28.768 53.464 28.4693 53.464 28.128V14.784L35.768 29.376ZM35.448 26.208L53.112 11.616H36.696C36.3547 11.616 36.056 11.744 35.8 12C35.5653 12.2347 35.448 12.5227 35.448 12.864V26.208ZM59.5115 32V23.36C59.5115 22.6347 59.6822 21.984 60.0235 21.408C60.3648 20.8107 60.8235 20.3413 61.3995 20C61.9968 19.6587 62.6582 19.488 63.3835 19.488H78.9035C79.2448 19.488 79.5328 19.3707 79.7675 19.136C80.0235 18.88 80.1515 18.5813 80.1515 18.24V12.832C80.1515 12.4907 80.0235 12.2027 79.7675 11.968C79.5328 11.712 79.2448 11.584 78.9035 11.584H63.3835C63.0422 11.584 62.7435 11.712 62.4875 11.968C62.2528 12.2027 62.1355 12.4907 62.1355 12.832V13.728H59.5115V12.832C59.5115 12.1067 59.6822 11.456 60.0235 10.88C60.3648 10.2827 60.8235 9.81333 61.3995 9.472C61.9968 9.10933 62.6582 8.928 63.3835 8.928H78.9035C79.6075 8.928 80.2475 9.10933 80.8235 9.472C81.4208 9.81333 81.8902 10.2827 82.2315 10.88C82.5942 11.456 82.7755 12.1067 82.7755 12.832V18.24C82.7755 18.944 82.5942 19.5947 82.2315 20.192C81.8902 20.768 81.4208 21.2373 80.8235 21.6C80.2475 21.9413 79.6075 22.112 78.9035 22.112H63.3835C63.0422 22.112 62.7435 22.24 62.4875 22.496C62.2528 22.7307 62.1355 23.0187 62.1355 23.36V28.128C62.1355 28.4693 62.2528 28.768 62.4875 29.024C62.7435 29.2587 63.0422 29.376 63.3835 29.376H82.7755V32H59.5115Z" fill="#242424"/>
</svg>
