<svg width="52" height="52" viewBox="0 0 52 52" fill="none" xmlns="http://www.w3.org/2000/svg">
<path d="M52 49.4307V52H51.8271L0 3.29004L0 0.55957L52 49.4307ZM10.4414 0L52 39.0576V41.7891L7.53613 0H10.4414ZM21.5615 0L52 28.6064V31.3379L18.6563 0H21.5615ZM32.5986 0L52 18.2334V20.9648L29.6934 0H32.5986ZM43.5859 0L52 7.90723V10.6387L40.6807 0H43.5859ZM52 0V0.265625L51.7168 0H52ZM43.6963 52H40.791L0 13.6631L0 10.9326L43.6963 52ZM32.6592 52H29.7539L0 24.0361L0 21.3057L32.6592 52ZM21.623 52H18.7178L0 34.4082L0 31.6777L21.623 52ZM10.5859 52H7.68066L0 44.7812L0 42.0508L10.5859 52Z" fill="white"/>
</svg>
